Coordinates
version=1
nRows=23
nColumns=28
inDegrees=yes

Units are S.I. units (second, meters, Newtons, ...)
Angles are in degrees.

endheader
time	pelvis_tilt	pelvis_list	pelvis_rotation	pelvis_tx	pelvis_ty	pelvis_tz	hip_flexion_r	hip_adduction_r	hip_rotation_r	knee_angle_r	ankle_angle_r	subtalar_angle_r	mtp_angle_r	hip_flexion_l	hip_adduction_l	hip_rotation_l	knee_angle_l	socket_flexion	socket_adduction	socket_rotation	socket_tx	socket_ty	socket_tz	foot_flex	lumbar_extension	lumbar_bending	lumbar_rotation
      0.31666667	      2.22845095	     -1.08212353	     -4.64871641	     -0.42103417	      1.03138702	      0.26576969	     15.13452388	      0.41332336	     -3.68364366	    -61.75637658	      5.32913139	    -19.12497229	     -2.59395485	     -1.96018860	     -0.09782854	     -7.14154753	     -2.53412622	      1.35828832	      0.08557871	     15.57260555	      0.00000000	     -0.00803597	      0.00000000	     -0.64527291	    -11.93485254	     -2.28178078	      3.11293164
      0.32083333	      2.51959682	     -1.88420645	     -4.17304299	     -0.41491644	      1.03240246	      0.26474999	     14.87828147	      1.13804574	     -4.29385187	    -60.70086945	      6.33521584	    -18.11617187	     -2.76222722	     -2.87242723	     -0.91274645	     -7.17998098	     -2.04852143	      1.54994295	      0.17716491	     16.12604314	      0.00000000	     -0.00867438	      0.00000000	     -0.45060265	    -12.24774112	     -1.15305753	      2.22627899
      0.32500000	      2.86834386	     -2.08480802	     -3.92266757	     -0.40972813	      1.03334047	      0.26427663	     14.86742528	      1.27345216	     -4.58326465	    -60.00188516	      6.93951084	    -17.78913930	     -3.52065140	     -3.72059052	     -1.06444400	     -7.04973174	     -1.60792844	      1.75745089	      0.25194865	     16.20020710	      0.00000000	     -0.00847230	      0.00000000	     -0.34191690	    -12.72034664	     -0.86360127	      1.96577764
      0.32916667	      2.88985192	     -2.08281137	     -3.88940600	     -0.40496762	      1.03361043	      0.26421647	     15.41450524	      1.26654748	     -4.63870673	    -59.55120483	      7.01536738	    -17.80256234	     -3.52187792	     -4.03394157	     -1.04023078	     -7.04813656	     -1.64093424	      1.67386249	      0.23375681	     16.21497794	      0.00000000	     -0.00827931	      0.00000000	     -0.29788716	    -12.84912663	     -0.87200447	      1.96318370
      0.33333333	      2.88869357	     -2.42933916	     -3.57535680	     -0.39927116	      1.03409150	      0.26372841	     15.61950588	      1.60355957	     -4.99026425	    -58.59079191	      7.57303541	    -17.72411059	     -3.71567288	     -4.46371056	     -1.40995607	     -7.05661637	     -1.42720737	      1.75870495	      0.28053402	     16.51828991	      0.00000000	     -0.00833728	      0.00000000	     -0.11743744	    -12.81741211	     -0.38607585	      1.78013809
      0.33750000	      2.90533272	     -2.45447545	     -3.48653242	     -0.39418617	      1.03446293	      0.26360317	     16.01709606	      1.62941155	     -5.08565622	    -57.87699847	      7.74583618	    -17.73686828	     -3.75782780	     -4.79439484	     -1.41626097	     -7.05736392	     -1.43602044	      1.71584983	      0.25868848	     16.56255421	      0.00000000	     -0.00803894	      0.00000000	      0.01138327	    -12.86164821	     -0.35298917	      1.74419054
      0.34166667	      3.18195810	     -2.87005532	     -3.14911944	     -0.38890706	      1.03517702	      0.26303679	     15.96581543	      1.99057550	     -5.50266514	    -56.93304920	      8.14610504	    -17.57604159	     -4.43523046	     -5.52250394	     -1.84781284	     -6.94901652	     -1.15513135	      1.80288428	      0.31407158	     16.73990999	      0.00000000	     -0.00821043	      0.00000000	      0.13200441	    -13.23180316	      0.22520176	      1.31069192
      0.34583333	      3.16956957	     -2.84689374	     -3.07946730	     -0.38388999	      1.03540432	      0.26293227	     16.39536382	      1.95881326	     -5.58135680	    -56.19974001	      8.30373470	    -17.61078992	     -4.46033876	     -5.81523411	     -1.80373309	     -6.96731377	     -1.16673145	      1.75195003	      0.29233910	     16.76154669	      0.00000000	     -0.00792600	      0.00000000	      0.22572876	    -13.28774036	      0.21365351	      1.31675489
      0.35000000	      3.21424452	     -3.12281654	     -2.80551631	     -0.37846827	      1.03569297	      0.26252461	     16.60421713	      2.17719475	     -5.98674867	    -55.26156780	      8.69961738	    -17.63485412	     -4.70347379	     -6.26303808	     -2.10985344	     -6.95061044	     -0.98302770	      1.80001129	      0.32214610	     17.04088327	      0.00000000	     -0.00798697	      0.00000000	      0.37511460	    -13.33634135	      0.59339230	      1.20050883
      0.35416667	      3.21496914	     -3.09932000	     -2.76163383	     -0.37350391	      1.03592663	      0.26248519	     16.98422160	      2.15397827	     -6.04833552	    -54.43607811	      8.81667383	    -17.64710251	     -4.75010357	     -6.56957010	     -2.06736014	     -6.96332595	     -1.00529356	      1.74013334	      0.30519270	     17.03748383	      0.00000000	     -0.00764406	      0.00000000	      0.46842418	    -13.38647687	      0.57871263	      1.17309657
      0.35833333	      3.31743118	     -3.41502852	     -2.46686191	     -0.36808163	      1.03624583	      0.26202850	     17.07592055	      2.40402747	     -6.48534719	    -53.38231695	      9.10276223	    -17.69831707	     -5.09223887	     -7.08794290	     -2.41841136	     -6.92454540	     -0.80595874	      1.77307513	      0.33589906	     17.27981226	      0.00000000	     -0.00778209	      0.00000000	      0.61902870	    -13.51073213	      1.02115994	      0.95947681
      0.36250000	      3.31812639	     -3.37625641	     -2.41818985	     -0.36315129	      1.03641617	      0.26205880	     17.41946282	      2.37308587	     -6.54071110	    -52.48135982	      9.22190125	    -17.71928057	     -5.15788755	     -7.39568236	     -2.37002386	     -6.92688706	     -0.81608225	      1.71641605	      0.32636259	     17.28121805	      0.00000000	     -0.00744018	      0.00000000	      0.71899444	    -13.56252758	      0.98391245	      0.92825114
      0.36666667	      3.51363095	     -3.71684131	     -2.12666793	     -0.35790319	      1.03685228	      0.26162663	     17.37312572	      2.66159765	     -6.95952113	    -51.30529987	      9.42497282	    -17.82009107	     -5.73130547	     -8.02694222	     -2.75015058	     -6.84460911	     -0.53842354	      1.80448815	      0.38314539	     17.46006623	      0.00000000	     -0.00753810	      0.00000000	      0.83490622	    -13.82083332	      1.45204832	      0.65501899
      0.37083333	      3.49720563	     -3.65285181	     -2.08529697	     -0.35296313	      1.03689798	      0.26164770	     17.71648671	      2.59463209	     -7.03948187	    -50.37132172	      9.56797263	    -17.86194288	     -5.79678475	     -8.32374317	     -2.67131335	     -6.85819800	     -0.53509882	      1.75908231	      0.37189555	     17.45945266	      0.00000000	     -0.00723740	      0.00000000	      0.95665535	    -13.84687115	      1.38929877	      0.65149588
      0.37500000	      3.46538919	     -3.61002715	     -2.01713550	     -0.34801850	      1.03691739	      0.26165022	     18.03652567	      2.54167336	     -7.16341141	    -49.36460630	      9.72234791	    -17.91069480	     -5.85617934	     -8.60302976	     -2.62207145	     -6.88449721	     -0.51623920	      1.73119890	      0.36251595	     17.48987280	      0.00000000	     -0.00695656	      0.00000000	      1.07429239	    -13.85751654	      1.35318085	      0.64774557
      0.37916667	      3.58336322	     -3.95967507	     -1.70232687	     -0.34264706	      1.03711155	      0.26119119	     18.00970439	      2.82740347	     -7.64139104	    -48.08189097	      9.88751079	    -18.06546792	     -6.38639166	     -9.18555373	     -3.02854704	     -6.81364133	     -0.15667101	      1.85510803	      0.43552292	     17.73562807	      0.00000000	     -0.00712364	      0.00000000	      1.21182639	    -13.99910937	      1.82849516	      0.46092414
      0.38333333	      3.57486295	     -3.90094358	     -1.65158420	     -0.33776990	      1.03711225	      0.26126224	     18.26997581	      2.77458950	     -7.72855140	    -47.00164222	     10.02801674	    -18.11765379	     -6.51800461	     -9.49880984	     -2.96903951	     -6.79406906	     -0.10585607	      1.84926461	      0.44591233	     17.76101603	      0.00000000	     -0.00679954	      0.00000000	      1.34509865	    -14.02704153	      1.76442753	      0.44012510
      0.38750000	      3.66350317	     -4.11341195	     -1.44466804	     -0.33252321	      1.03720644	      0.26097323	     18.29598859	      2.93797365	     -8.11106543	    -45.72743379	     10.15397830	    -18.27382585	     -7.04733627	    -10.04297299	     -3.20970572	     -6.74015783	      0.24074106	      1.98015018	      0.52578787	     17.85140806	      0.00000000	     -0.00679416	      0.00000000	      1.46774754	    -14.13337559	      2.08249838	      0.32054884
      0.39166667	      3.62030591	     -4.00959329	     -1.42455108	     -0.32767927	      1.03706326	      0.26111181	     18.58465329	      2.85220336	     -8.16093598	    -44.62303510	     10.28946751	    -18.29250601	     -7.11240178	    -10.30916347	     -3.09929969	     -6.74770357	      0.25777988	      1.94680613	      0.51624515	     17.84407701	      0.00000000	     -0.00649288	      0.00000000	      1.57676224	    -14.12948890	      1.95749733	      0.31378363
      0.39583333	      3.56528964	     -3.93941130	     -1.36133932	     -0.32275771	      1.03689966	      0.26119907	     18.83227872	      2.78607366	     -8.27615376	    -43.43827342	     10.42419490	    -18.32368491	     -7.19698769	    -10.57442651	     -3.03607821	     -6.74274263	      0.31306027	      1.94575142	      0.51515847	     17.91105545	      0.00000000	     -0.00620662	      0.00000000	      1.70648747	    -14.08926247	      1.87140815	      0.31099180
      0.40000000	      3.49786809	     -3.87702268	     -1.28323897	     -0.31777491	      1.03665981	      0.26122973	     19.07730168	      2.72006493	     -8.42254162	    -42.23408788	     10.54864840	    -18.35393570	     -7.27648300	    -10.83456239	     -2.98022154	     -6.76967600	      0.37729006	      1.93040603	      0.52905517	     17.96120874	      0.00000000	     -0.00597977	      0.00000000	      1.82834309	    -14.04446665	      1.82154725	      0.30706708
      0.40416667	      3.54912711	     -4.19684799	     -1.01072158	     -0.31249980	      1.03660164	      0.26090455	     19.00839385	      3.01790671	     -8.83696330	    -40.70228185	     10.54049277	    -18.49277529	     -7.81339871	    -11.36122116	     -3.36637364	     -6.67156532	      0.81334928	      2.12455167	      0.65183577	     18.11430096	      0.00000000	     -0.00615462	      0.00000000	      1.95848106	    -14.09876798	      2.27588398	      0.13445627
      0.40833333	      3.48163326	     -4.05868385	     -0.99025894	     -0.30759127	      1.03629164	      0.26105063	     19.24432621	      2.89369121	     -8.91415089	    -39.48734881	     10.68509871	    -18.50974435	     -7.86934620	    -11.60937967	     -3.21822206	     -6.69498391	      0.84520110	      2.09954756	      0.64206377	     18.10191636	      0.00000000	     -0.00583266	      0.00000000	      2.07315670	    -14.05610370	      2.11491991	      0.13406402
